<svg width="245" height="244" viewBox="0 0 245 244" fill="none" xmlns="http://www.w3.org/2000/svg">
<path fill-rule="evenodd" clip-rule="evenodd" d="M30.9846 91.5002H81.8179C81.8179 91.5002 81.8179 91.5002 81.8179 91.5001C81.8179 69.0406 100.025 50.8335 122.485 50.8335C144.944 50.8335 163.151 69.0406 163.151 91.5001L213.985 91.5002C213.985 91.5002 213.985 91.5001 213.985 91.5C213.985 41.034 173.129 0.110391 122.689 0.000244141H122.28C71.8403 0.110391 30.9846 41.034 30.9846 91.5C30.9846 91.5001 30.9846 91.5002 30.9846 91.5002ZM142.818 91.5002C142.818 91.5002 142.818 91.5002 142.818 91.5001C142.818 80.2704 133.714 71.1668 122.485 71.1668C111.255 71.1668 102.151 80.2704 102.151 91.5001C102.151 91.5002 102.151 91.5002 102.151 91.5002H142.818Z" fill="#FFAB76"/>
<path d="M10.6516 111.833H234.318V235.849C234.318 240.351 230.669 244 226.167 244H18.8031C14.3012 244 10.6516 240.351 10.6516 235.849V111.833Z" fill="#FFAB76"/>
</svg>
