<svg width="244" height="244" viewBox="0 0 244 244" fill="none" xmlns="http://www.w3.org/2000/svg">
<path d="M81.3333 111.833C109.408 111.833 132.167 89.0746 132.167 61.0001C132.167 32.9256 109.408 10.1667 81.3333 10.1667C53.2589 10.1667 30.5 32.9256 30.5 61.0001C30.5 89.0746 53.2589 111.833 81.3333 111.833Z" fill="#FFAB76"/>
<path d="M0 164.773C0 146.765 14.5982 132.167 32.6061 132.167H130.061C148.068 132.167 162.667 146.765 162.667 164.773V225.682C162.667 230.184 159.017 233.833 154.515 233.833H8.15152C3.64957 233.833 0 230.184 0 225.682V164.773Z" fill="#FFAB76"/>
<path d="M172.833 132.167C189.678 132.167 203.333 118.511 203.333 101.667C203.333 84.8221 189.678 71.1667 172.833 71.1667C155.989 71.1667 142.333 84.8221 142.333 101.667C142.333 118.511 155.989 132.167 172.833 132.167Z" fill="#FFAB76"/>
<path d="M193.167 101.667V20.3335L223.667 30.5002" stroke="#FFAB76" stroke-width="24" stroke-linecap="round" stroke-linejoin="round"/>
</svg>
