<svg width="244" height="244" viewBox="0 0 244 244" fill="none" xmlns="http://www.w3.org/2000/svg">
<path d="M125.722 24.9367C128.42 23.0098 132.167 24.9382 132.167 28.2533V215.747C132.167 219.062 128.42 220.99 125.722 219.063L61.0001 172.833H18.3183C13.8163 172.833 10.1667 169.184 10.1667 164.682V79.3182C10.1667 74.8162 13.8163 71.1667 18.3183 71.1667H61.0001L125.722 24.9367Z" fill="#FFAB76"/>
<path d="M162.604 171.872C175.219 159.03 183 141.424 183 122.001C183 102.496 175.153 84.8236 162.444 71.9685" stroke="#FFAB76" stroke-width="23" stroke-linecap="round" stroke-linejoin="round"/>
<path d="M190.912 42.9231C211.149 63.1609 223.667 91.1193 223.667 122.001C223.667 152.883 211.149 180.841 190.912 201.079" stroke="#FFAB76" stroke-width="23" stroke-linecap="round" stroke-linejoin="round"/>
</svg>
