<svg width="244" height="244" viewBox="0 0 244 244" fill="none" xmlns="http://www.w3.org/2000/svg">
<path fill-rule="evenodd" clip-rule="evenodd" d="M8.15127 81.3335C3.64931 81.3335 -0.000244141 84.9831 -0.000244141 89.485V235.849C-0.000244141 240.351 3.64932 244 8.15128 244H235.848C240.35 244 244 240.351 244 235.849V89.485C244 84.9831 240.35 81.3335 235.848 81.3335H8.15127ZM96.5831 126.756C96.5831 123.627 99.9639 121.665 102.681 123.217L161.557 156.861C164.295 158.425 164.295 162.374 161.557 163.938L102.681 197.582C99.9639 199.134 96.5831 197.172 96.5831 194.043V126.756Z" fill="#FFAB76"/>
<rect x="10.1665" y="40.6667" width="223.667" height="20.3333" rx="4.07576" fill="#FFAB76"/>
<rect x="20.3333" width="203.333" height="20.3333" rx="4.07576" fill="#FFAB76"/>
</svg>
