<svg width="245" height="244" viewBox="0 0 245 244" fill="none" xmlns="http://www.w3.org/2000/svg">
<path d="M228.394 56.2812C230.948 54.6848 230.948 50.965 228.394 49.3687L158.827 5.88903C156.112 4.19238 152.591 6.14402 152.591 9.34527V96.3046C152.591 99.5058 156.112 101.457 158.827 99.7608L228.394 56.2812Z" fill="#FFAB76"/>
<path d="M16.9398 188.448C14.3856 186.852 14.3857 183.132 16.9398 181.535L86.5073 138.056C89.2219 136.359 92.7432 138.311 92.7432 141.512L92.7432 228.471C92.7432 231.673 89.2219 233.624 86.5073 231.928L16.9398 188.448Z" fill="#FFAB76"/>
<path d="M40.7576 111.833V111.833C40.7576 78.1441 68.0682 50.8335 101.758 50.8335V50.8335H152.591" stroke="#FFAB76" stroke-width="24" stroke-linecap="round" stroke-linejoin="round"/>
<path d="M193.258 122V122C193.258 155.689 165.947 183 132.258 183V183H81.4242" stroke="#FFAB76" stroke-width="24" stroke-linecap="round" stroke-linejoin="round"/>
</svg>
