<svg width="245" height="244" viewBox="0 0 245 244" fill="none" xmlns="http://www.w3.org/2000/svg">
<path d="M30.7727 162.667H51.106V225.682C51.106 230.184 47.4565 233.833 42.9545 233.833H38.9242C34.4223 233.833 30.7727 230.184 30.7727 225.682V162.667Z" fill="#FFAB76"/>
<path d="M112.106 132.167H132.439V225.682C132.439 230.184 128.79 233.833 124.288 233.833H120.258C115.756 233.833 112.106 230.184 112.106 225.682V132.167Z" fill="#FFAB76"/>
<path d="M30.7727 18.3183C30.7727 13.8163 34.4223 10.1667 38.9242 10.1667H42.9545C47.4565 10.1667 51.106 13.8163 51.106 18.3183V111.833H30.7727V18.3183Z" fill="#FFAB76"/>
<path d="M193.439 162.667H213.773V225.682C213.773 230.184 210.123 233.833 205.621 233.833H201.591C197.089 233.833 193.439 230.184 193.439 225.682V162.667Z" fill="#FFAB76"/>
<path d="M193.439 18.3183C193.439 13.8163 197.089 10.1667 201.591 10.1667H205.621C210.123 10.1667 213.773 13.8163 213.773 18.3183V111.833H193.439V18.3183Z" fill="#FFAB76"/>
<path d="M112.106 18.3183C112.106 13.8163 115.756 10.1667 120.258 10.1667H124.288C128.79 10.1667 132.439 13.8163 132.439 18.3183V81.3334H112.106V18.3183Z" fill="#FFAB76"/>
<rect x="162.939" y="132.167" width="81.3333" height="50.8333" rx="8.15152" fill="#FFAB76"/>
<rect x="81.6061" y="61.0002" width="81.3333" height="50.8333" rx="8.15152" fill="#FFAB76"/>
<rect x="0.272705" y="132.167" width="81.3333" height="50.8333" rx="8.15152" fill="#FFAB76"/>
</svg>
