<svg width="245" height="244" viewBox="0 0 245 244" fill="none" xmlns="http://www.w3.org/2000/svg">
<path d="M163.575 183.001C147.542 183.001 132.532 176.724 121.396 166.07" stroke="#FFAB76" stroke-width="24" stroke-linecap="round" stroke-linejoin="round"/>
<path d="M73.6489 81.8618C59.7614 68.7277 41.1321 61.0002 21.2423 61.0002" stroke="#FFAB76" stroke-width="24" stroke-linecap="round" stroke-linejoin="round"/>
<path d="M239.379 188.448C241.933 186.851 241.933 183.132 239.379 181.535L169.812 138.056C167.097 136.359 163.576 138.311 163.576 141.512V228.471C163.576 231.672 167.097 233.624 169.812 231.927L239.379 188.448Z" fill="#FFAB76"/>
<path d="M163.576 61H144.646C131.483 61 119.611 68.9147 114.549 81.0653L80.4363 162.935C75.3736 175.085 63.5015 183 50.3384 183H21.2424" stroke="#FFAB76" stroke-width="24" stroke-linecap="round" stroke-linejoin="round"/>
<path d="M229.213 66.4477C231.767 64.8513 231.767 61.1315 229.213 59.5352L159.645 16.0555C156.93 14.3589 153.409 16.3105 153.409 19.5118V106.471C153.409 109.672 156.93 111.624 159.645 109.927L229.213 66.4477Z" fill="#FFAB76"/>
</svg>
